<svg width="512" height="512" viewBox="0 0 512 512" fill="none" xmlns="http://www.w3.org/2000/svg" role="img" aria-labelledby="title desc">
  <title id="title">BudCast Pulse Broadcast Symbol</title>
  <desc id="desc">A creator node with asymmetric pulse waves for content distribution.</desc>
  <rect width="512" height="512" rx="116" fill="#0A0A0B"/>
  <g stroke="#B8FF3D" stroke-linecap="round" stroke-linejoin="round">
    <path d="M192 256C236 218 287 204 349 216" stroke-width="34"/>
    <path d="M192 256C243 278 292 277 340 253" stroke-width="24"/>
    <path d="M192 256C232 326 294 355 378 343" stroke-width="34"/>
    <path d="M216 232C250 181 298 153 363 148" stroke-width="18"/>
    <path d="M225 287C263 319 307 332 358 326" stroke-width="18"/>
  </g>
  <circle cx="164" cy="256" r="56" fill="#B8FF3D"/>
  <circle cx="164" cy="256" r="19" fill="#0A0A0B"/>
  <circle cx="349" cy="216" r="19" fill="#B8FF3D"/>
  <circle cx="340" cy="253" r="15" fill="#B8FF3D"/>
  <circle cx="378" cy="343" r="20" fill="#B8FF3D"/>
  <circle cx="363" cy="148" r="13" fill="#B8FF3D"/>
</svg>
